<svg width="78" height="78" viewBox="0 0 78 78" fill="none" xmlns="http://www.w3.org/2000/svg">
<path d="M22.9937 0.600098C10.6449 0.600098 0.599976 10.6543 0.599976 23.0063V55.0063C0.599976 67.3551 10.6542 77.4001 23.0062 77.4001H55.0062C67.355 77.4001 77.4 67.3458 77.4 54.9938V22.9938C77.4 10.645 67.3457 0.600098 54.9937 0.600098H22.9937ZM61.4 13.4001C63.1664 13.4001 64.6 14.8337 64.6 16.6001C64.6 18.3665 63.1664 19.8001 61.4 19.8001C59.6336 19.8001 58.2 18.3665 58.2 16.6001C58.2 14.8337 59.6336 13.4001 61.4 13.4001ZM39 19.8001C49.5888 19.8001 58.2 28.4113 58.2 39.0001C58.2 49.5889 49.5888 58.2001 39 58.2001C28.4112 58.2001 19.8 49.5889 19.8 39.0001C19.8 28.4113 28.4112 19.8001 39 19.8001ZM39 26.2001C35.6052 26.2001 32.3495 27.5487 29.949 29.9491C27.5485 32.3496 26.2 35.6053 26.2 39.0001C26.2 42.3949 27.5485 45.6506 29.949 48.0511C32.3495 50.4515 35.6052 51.8001 39 51.8001C42.3947 51.8001 45.6505 50.4515 48.0509 48.0511C50.4514 45.6506 51.8 42.3949 51.8 39.0001C51.8 35.6053 50.4514 32.3496 48.0509 29.9491C45.6505 27.5487 42.3947 26.2001 39 26.2001V26.2001Z" fill="white"/>
</svg>
