<svg width="84" height="68" viewBox="0 0 84 68" fill="none" xmlns="http://www.w3.org/2000/svg">
<path d="M83.6001 8.19851C80.5377 9.55851 77.2481 10.4737 73.7952 10.8865C77.3217 8.77451 80.0257 5.43051 81.2992 1.44331C78.0033 3.39851 74.3488 4.81931 70.4576 5.58731C67.344 2.26891 62.9089 0.195312 58 0.195312C48.5728 0.195312 40.9313 7.84011 40.9313 17.2641C40.9313 18.6017 41.0849 19.9073 41.3729 21.1521C27.1873 20.4417 14.6113 13.6449 6.18885 3.31531C4.72325 5.83691 3.88165 8.76811 3.88165 11.9009C3.88165 17.8209 6.89285 23.0465 11.4721 26.1057C8.67525 26.0161 6.04165 25.2481 3.74085 23.9713C3.74085 24.0449 3.74085 24.1121 3.74085 24.1857C3.74085 32.4577 9.62245 39.3569 17.4337 40.9217C16.0033 41.3121 14.4929 41.5201 12.9345 41.5201C11.8369 41.5201 10.7649 41.4113 9.72485 41.2161C11.8977 47.9969 18.2017 52.9345 25.6705 53.0721C19.8305 57.6513 12.4705 60.3809 4.47045 60.3809C3.09445 60.3809 1.73445 60.3009 0.396851 60.1409C7.95205 64.9825 16.9217 67.8081 26.5633 67.8081C57.9617 67.8081 75.1264 41.7985 75.1264 19.2417C75.1264 18.5025 75.1105 17.7665 75.0785 17.0337C78.416 14.6241 81.312 11.6193 83.6001 8.19851Z" fill="white"/>
</svg>
